<svg width="765.839" height="536.777" viewBox="0 0 765.839 536.777" xmlns="http://www.w3.org/2000/svg" xmlns:xlink="http://www.w3.org/1999/xlink" id="e2e16f07-c08d-4c73-859c-14fba73875a7" overflow="hidden"><path d="M975.748 531.162 445.253 531.162C441.294 531.158 438.086 527.949 438.081 523.99L438.081 195.42 982.92 195.42 982.92 523.99C982.915 527.949 979.707 531.158 975.748 531.162Z" fill="#E6E6E6" transform="translate(-217.08 -181.612)"/><path d="M960.192 510.629 460.809 510.629C456.806 510.625 453.563 507.381 453.559 503.379L453.559 232.79C453.563 228.787 456.806 225.544 460.809 225.54L960.192 225.54C964.195 225.544 967.438 228.787 967.442 232.79L967.442 503.379C967.438 507.381 964.195 510.625 960.192 510.629Z" fill="#FFFFFF" transform="translate(-217.08 -181.612)"/><path d="M982.687 205.566 437.849 205.566 437.849 188.784C437.853 184.824 441.062 181.616 445.021 181.612L975.515 181.612C979.474 181.616 982.683 184.824 982.687 188.784Z" fill="#EF8436" transform="translate(-217.08 -181.612)"/><circle cx="238.365" cy="12.2372" r="4.28342" fill="#FFFFFF"/><circle cx="254.623" cy="12.2372" r="4.28342" fill="#FFFFFF"/><circle cx="270.882" cy="12.2372" r="4.28342" fill="#FFFFFF"/><rect x="287.803" y="92.449" width="51.4695" height="22.7816" fill="#E6E6E6"/><rect x="390.742" y="139.7" width="51.4695" height="22.7816" fill="#E6E6E6"/><rect x="287.803" y="210.576" width="51.4695" height="22.7816" fill="#EF8436"/><rect x="390.742" y="257.826" width="51.4695" height="22.7816" fill="#EF8436"/><rect x="647.246" y="281.452" width="51.4695" height="22.7816" fill="#EF8436"/><rect x="595.776" y="186.95" width="51.4695" height="22.7816" fill="#E6E6E6"/><rect x="442.212" y="186.95" width="102.939" height="22.7816" fill="#EF8436"/><rect x="442.212" y="67.9799" width="102.939" height="22.7816" fill="#EF8436"/><path d="M453.414 225.122 453.414 511.158 968.109 511.158 968.109 225.122ZM966.422 248.818 916.809 248.818 916.809 226.81 966.422 226.81ZM660.305 414.688 660.305 392.68 761.218 392.68 761.218 414.688ZM761.218 416.375 761.218 438.383 660.305 438.383 660.305 416.375ZM761.218 321.593 761.218 343.601 660.305 343.601 660.305 321.593ZM660.305 319.905 660.305 297.897 761.218 297.897 761.218 319.905ZM660.305 367.296 660.305 345.288 761.218 345.288 761.218 367.296ZM761.218 368.984 761.218 390.992 660.305 390.992 660.305 368.984ZM658.617 343.601 609.004 343.601 609.004 321.593 658.617 321.593ZM658.617 345.288 658.617 367.296 609.004 367.296 609.004 345.288ZM658.617 368.984 658.617 390.992 609.004 390.992 609.004 368.984ZM658.617 392.68 658.617 414.688 609.004 414.688 609.004 392.68ZM762.906 392.68 812.519 392.68 812.519 414.688 762.906 414.688ZM762.906 390.992 762.906 368.984 812.519 368.984 812.519 390.992ZM762.906 367.296 762.906 345.288 812.519 345.288 812.519 367.296ZM762.906 343.601 762.906 321.593 812.519 321.593 812.519 343.601ZM762.906 319.905 762.906 297.897 812.519 297.897 812.519 319.905ZM762.906 296.209 762.906 274.201 812.519 274.201 812.519 296.209ZM761.218 296.209 660.305 296.209 660.305 274.201 761.218 274.201ZM658.617 296.209 609.004 296.209 609.004 274.201 658.617 274.201ZM658.617 297.897 658.617 319.905 609.004 319.905 609.004 297.897ZM607.317 319.905 557.703 319.905 557.703 297.897 607.317 297.897ZM607.317 321.593 607.317 343.601 557.703 343.601 557.703 321.593ZM607.317 345.288 607.317 367.296 557.703 367.296 557.703 345.288ZM607.317 368.984 607.317 390.992 557.703 390.992 557.703 368.984ZM607.317 392.68 607.317 414.688 557.703 414.688 557.703 392.68ZM607.317 416.375 607.317 438.383 557.703 438.383 557.703 416.375ZM609.004 416.375 658.617 416.375 658.617 438.383 609.004 438.383ZM658.617 440.071 658.617 462.079 609.004 462.079 609.004 440.071ZM660.305 440.071 761.218 440.071 761.218 462.079 660.305 462.079ZM762.906 440.071 812.519 440.071 812.519 462.079 762.906 462.079ZM762.906 438.383 762.906 416.375 812.519 416.375 812.519 438.383ZM814.207 416.375 863.82 416.375 863.82 438.383 814.206 438.383ZM814.207 414.688 814.207 392.68 863.82 392.68 863.82 414.688ZM814.207 390.992 814.207 368.984 863.82 368.984 863.82 390.992ZM814.207 367.296 814.207 345.288 863.82 345.288 863.82 367.296ZM814.207 343.601 814.207 321.593 863.82 321.593 863.82 343.601ZM814.207 319.905 814.207 297.897 863.82 297.897 863.82 319.905ZM814.207 296.209 814.207 274.201 863.82 274.201 863.82 296.209ZM814.207 272.514 814.207 250.506 863.82 250.506 863.82 272.514ZM812.519 272.514 762.906 272.514 762.906 250.506 812.519 250.506ZM761.218 272.514 660.305 272.514 660.305 250.506 761.218 250.506ZM658.617 272.514 609.004 272.514 609.004 250.506 658.617 250.506ZM607.317 272.514 557.703 272.514 557.703 250.506 607.317 250.506ZM607.317 274.201 607.317 296.209 557.703 296.209 557.703 274.201ZM556.015 296.209 506.402 296.209 506.402 274.201 556.015 274.201ZM556.015 297.897 556.015 319.905 506.402 319.905 506.402 297.897ZM556.015 321.593 556.015 343.601 506.402 343.601 506.402 321.593ZM556.015 345.288 556.015 367.296 506.402 367.296 506.402 345.288ZM556.015 368.984 556.015 390.992 506.402 390.992 506.402 368.984ZM556.015 392.68 556.015 414.688 506.402 414.688 506.402 392.68ZM556.015 416.375 556.015 438.383 506.402 438.383 506.402 416.375ZM556.015 440.071 556.015 462.079 506.402 462.079 506.402 440.071ZM557.703 440.071 607.317 440.071 607.317 462.079 557.703 462.079ZM607.317 463.766 607.317 485.775 557.703 485.775 557.703 463.766ZM609.004 463.766 658.617 463.766 658.617 485.775 609.004 485.775ZM660.305 463.766 761.218 463.766 761.218 485.775 660.305 485.775ZM762.906 463.766 812.519 463.766 812.519 485.775 762.906 485.775ZM814.207 463.766 863.82 463.766 863.82 485.775 814.206 485.775ZM814.207 462.079 814.207 440.071 863.82 440.071 863.82 462.079ZM865.508 440.071 915.121 440.071 915.121 462.079 865.508 462.079ZM865.508 438.383 865.508 416.375 915.121 416.375 915.121 438.383ZM865.508 414.688 865.508 392.68 915.121 392.68 915.121 414.688ZM865.508 390.992 865.508 368.984 915.121 368.984 915.121 390.992ZM865.508 367.296 865.508 345.288 915.121 345.288 915.121 367.296ZM865.508 343.601 865.508 321.593 915.121 321.593 915.121 343.601ZM865.508 319.905 865.508 297.897 915.121 297.897 915.121 319.905ZM865.508 296.209 865.508 274.201 915.121 274.201 915.121 296.209ZM865.508 272.514 865.508 250.506 915.121 250.506 915.121 272.514ZM865.508 248.818 865.508 226.81 915.121 226.81 915.121 248.818ZM863.82 248.818 814.206 248.818 814.206 226.81 863.82 226.81ZM812.519 248.818 762.906 248.818 762.906 226.81 812.519 226.81ZM761.218 248.818 660.305 248.818 660.305 226.81 761.218 226.81ZM658.617 248.818 609.004 248.818 609.004 226.81 658.617 226.81ZM607.317 248.818 557.703 248.818 557.703 226.81 607.317 226.81ZM556.015 248.818 506.402 248.818 506.402 226.81 556.015 226.81ZM556.015 250.506 556.015 272.514 506.402 272.514 506.402 250.506ZM504.715 272.514 455.102 272.514 455.102 250.506 504.715 250.506ZM504.715 274.201 504.715 296.209 455.102 296.209 455.102 274.201ZM504.715 297.897 504.715 319.905 455.102 319.905 455.102 297.897ZM504.715 321.593 504.715 343.601 455.102 343.601 455.102 321.593ZM504.715 345.288 504.715 367.296 455.102 367.296 455.102 345.288ZM504.715 368.984 504.715 390.992 455.102 390.992 455.102 368.984ZM504.715 392.68 504.715 414.688 455.102 414.688 455.102 392.68ZM504.715 416.375 504.715 438.383 455.102 438.383 455.102 416.375ZM504.715 440.071 504.715 462.079 455.102 462.079 455.102 440.071ZM504.715 463.766 504.715 485.775 455.102 485.775 455.102 463.766ZM506.402 463.766 556.015 463.766 556.015 485.775 506.402 485.775ZM556.015 487.463 556.015 509.47 506.402 509.47 506.402 487.463ZM557.703 487.463 607.317 487.463 607.317 509.47 557.703 509.47ZM609.004 487.463 658.617 487.463 658.617 509.47 609.004 509.47ZM660.305 487.463 761.218 487.463 761.218 509.47 660.305 509.47ZM762.906 487.463 812.519 487.463 812.519 509.47 762.906 509.47ZM814.207 487.463 863.82 487.463 863.82 509.47 814.206 509.47ZM865.508 487.463 915.121 487.463 915.121 509.47 865.508 509.47ZM865.508 485.775 865.508 463.766 915.121 463.766 915.121 485.775ZM916.809 463.766 966.422 463.766 966.422 485.775 916.809 485.775ZM916.809 462.079 916.809 440.071 966.422 440.071 966.422 462.079ZM916.809 438.383 916.809 416.375 966.422 416.375 966.422 438.383ZM916.809 414.688 916.809 392.68 966.422 392.68 966.422 414.688ZM916.809 390.992 916.809 368.984 966.422 368.984 966.422 390.992ZM916.809 367.296 916.809 345.288 966.422 345.288 966.422 367.296ZM916.809 343.601 916.809 321.593 966.422 321.593 966.422 343.601ZM916.809 319.905 916.809 297.897 966.422 297.897 966.422 319.905ZM916.809 296.209 916.809 274.201 966.422 274.201 966.422 296.209ZM916.809 272.514 916.809 250.506 966.422 250.506 966.422 272.514ZM504.715 226.81 504.715 248.818 455.102 248.818 455.102 226.81ZM455.102 487.463 504.715 487.463 504.715 509.47 455.102 509.47ZM916.809 509.47 916.809 487.463 966.422 487.463 966.422 509.47Z" fill="#E6E6E6" transform="translate(-217.08 -181.612)"/><path d="M313.306 380.104C313.306 380.104 287.268 374.104 272.947 385.104 258.626 396.104 291.174 421.104 291.174 421.104Z" fill="#2F2E41" transform="translate(-217.08 -181.612)"/><path d="M340.233 523.587C338.263 518.395 340.874 512.588 346.067 510.617 346.62 510.407 347.191 510.246 347.773 510.137L353.035 474.791 366.863 487.186 359.746 518.85C360.415 524.394 356.463 529.43 350.919 530.098 346.281 530.657 341.863 527.966 340.233 523.587Z" fill="#FFB8B8" transform="translate(-217.08 -181.612)"/><path d="M68.648 525.464 80.881 524.652 83.571 477.082 65.517 478.28 68.648 525.464Z" fill="#FFB8B8"/><path d="M283.326 702.463 321.857 702.463 321.857 702.463 321.857 717.35 321.857 717.35 298.213 717.35C289.991 717.35 283.326 710.684 283.326 702.463L283.326 702.463 283.326 702.463Z" fill="#2F2E41" transform="matrix(-1 1.22465e-16 -1.22465e-16 -1 388.102 1238.2)"/><path d="M89.789 508.53 101.29 512.775 123.139 470.433 106.164 464.168 89.789 508.53Z" fill="#FFB8B8"/><path d="M301.848 692.156 340.379 692.156 340.379 692.156 340.379 707.043 340.379 707.043 316.735 707.043C308.514 707.043 301.848 700.378 301.848 692.156L301.848 692.156 301.848 692.156Z" fill="#2F2E41" transform="matrix(-0.938128 -0.346289 0.346289 -0.938128 163.015 1285.5)"/><path d="M340.311 507.391C340.311 507.391 352.7 514.062 348.888 540.745L345.076 641.76 324.017 687.809 305.91 683.044 317.44 645.572 302.192 579.817 300.192 699.245 283.039 702.104 258.356 503.579 289.804 489.285Z" fill="#2F2E41" transform="translate(-217.08 -181.612)"/><circle cx="78.9503" cy="162.594" r="24.561" fill="#FFB8B8"/><path d="M310.293 375.405 297.904 395.417 279.798 377.311 245.948 401.006C243.502 402.713 242.56 405.883 243.675 408.649 248.882 421.524 262.215 459.582 258.356 503.579 258.356 503.579 284.086 496.908 310.769 504.532 337.452 512.156 344.123 509.297 344.123 509.297 344.123 509.297 337.452 460.696 341.264 450.213 344.426 441.518 350.866 412.496 352.971 402.852 353.379 400.981 352.515 399.065 350.844 398.131Z" fill="#EF8436" transform="translate(-217.08 -181.612)"/><path d="M349.862 398.247 349.862 398.247C352.03 397.937 354.09 399.286 354.675 401.396L370.806 459.649 366.994 494.908 348.888 492.049 350.794 467.272 337.452 435.824 346.259 401.477C346.697 399.771 348.119 398.496 349.862 398.247Z" fill="#EF8436" transform="translate(-217.08 -181.612)"/><path d="M277.038 309.728C280.378 304.06 286.613 300.743 293.18 301.14 296.548 301.563 299.836 302.483 302.934 303.871L318.99 310.134C323.145 311.755 327.695 313.74 329.498 317.819 331.172 321.605 329.923 325.977 328.659 329.918L322.652 348.654C321.987 344.414 320.845 340.262 319.248 336.278 317.503 332.36 314.743 328.748 310.928 326.791 306.757 324.651 301.842 324.696 297.16 324.921 290.529 325.24 283.319 326.084 278.608 330.761 276.107 333.417 274.412 336.728 273.719 340.31 273.036 343.873 272.693 347.492 272.693 351.119 269.974 346.445 267.684 341.535 265.85 336.448 264.341 332.66 263.482 328.645 263.307 324.572 263.149 320.464 264.513 316.442 267.135 313.276 269.848 310.244 274.268 308.607 278.155 309.807" fill="#2F2E41" transform="translate(-217.08 -181.612)"/><path d="M263.379 537.587C265.35 532.395 262.738 526.588 257.546 524.617 256.992 524.407 256.421 524.246 255.839 524.137L250.577 488.791 236.749 501.186 243.866 532.85C243.198 538.394 247.15 543.43 252.693 544.098 257.332 544.657 261.75 541.966 263.379 537.587Z" fill="#FFB8B8" transform="translate(-217.08 -181.612)"/><path d="M246.295 400.669 246.295 400.669C243.322 401.164 241.095 403.664 240.945 406.674L235.485 515.874 255.497 515.874 262.168 457.743 253.678 405.957C253.105 402.462 249.807 400.093 246.312 400.666 246.307 400.667 246.301 400.668 246.295 400.669Z" fill="#EF8436" transform="translate(-217.08 -181.612)"/><path d="M171.738 536.777 0 536.777 0 534.671 172.12 534.671 171.738 536.777Z" fill="#CCCCCC"/></svg>