<svg viewBox="0 0 10328 12910" xmlns="http://www.w3.org/2000/svg" xmlns:xlink="http://www.w3.org/1999/xlink" fill-rule="evenodd" clip-rule="evenodd" overflow="hidden"><defs></defs><g><path d="M3768 3547 2443 3547C2219 3923 2071 4349 2019 4804L3768 4804 3768 5741 6068 4176 3768 2611 3768 3547ZM5975 1032C6535 1141 7056 1361 7512 1669L8010 1171C8138 1043 8346 1043 8474 1171L9158 1854C9285 1982 9285 2190 9158 2318L8659 2816C8967 3273 9187 3793 9297 4353L10001 4353C10181 4353 10328 4500 10328 4681L10328 5648C10328 5828 10181 5975 10001 5975L9297 5975C9187 6535 8967 7056 8660 7512L9158 8010C9285 8138 9285 8346 9158 8474L8474 9158C8346 9285 8138 9285 8010 9158L7512 8659C7055 8967 6535 9187 5975 9297L5975 10001C5975 10181 5828 10328 5648 10328L4681 10328C4500 10328 4353 10181 4353 10001L4353 9297C3793 9187 3273 8967 2816 8660L2318 9158C2190 9285 1982 9285 1854 9158L1171 8474C1043 8346 1043 8138 1171 8010L1669 7512C1361 7055 1141 6535 1032 5975L328 5975C147 5975 0 5828 0 5648L0 4681C0 4500 147 4353 328 4353L1031 4353C1141 3793 1361 3273 1669 2816L1171 2318C1043 2190 1043 1982 1171 1854L1854 1171C1982 1043 2190 1043 2318 1171L2816 1669C3273 1361 3793 1141 4353 1032L4353 328C4353 147 4500 0 4681 0L5648 0C5828 0 5975 147 5975 328L5975 1032ZM5164 1812C7015 1812 8516 3313 8516 5164 8516 7015 7015 8516 5164 8516 3313 8516 1812 7015 1812 5164 1812 3313 3313 1812 5164 1812ZM6603 5568 8304 5568C8246 6025 8090 6451 7859 6825L6603 6825 6603 7761 4303 6196 6603 4632 6603 5568Z" fill="#3D97C8"/></g><text fill="#3D97C8" font-family="Helvetica Neue,Helvetica,Arial-Unicode,Arial,Arial" font-weight="700" font-size="5" x="0" y="10343">Created by popcornarts</text><text fill="#3D97C8" font-family="Helvetica Neue,Helvetica,Arial-Unicode,Arial,Arial" font-weight="700" font-size="5" x="0" y="10348">from the Noun Project</text></svg>